<?xml version="1.0" encoding="UTF-8"?>
<svg width="83px" height="75px" viewBox="0 0 83 75" version="1.1" xmlns="http://www.w3.org/2000/svg" xmlns:xlink="http://www.w3.org/1999/xlink">
    <g id="NM-Desk" stroke="none" stroke-width="1" fill="none" fill-rule="evenodd">
        <g id="3_NM---Web---How-it-works" transform="translate(-678.000000, -85.000000)" fill="#FFFFFF">
            <g id="Menu" transform="translate(308.000000, 85.000000)">
                <g id="logo" transform="translate(370.000000, 0.000000)">
                    <g>
                        <path d="M17.894956,13.1689173 C17.894956,13.1689173 23.5427004,5.21215038 35.4778508,3.01233835 C35.4778508,3.01233835 22.9030387,8.98771429 17.4113094,18.270609 C17.0680763,18.301812 16.7092417,18.333015 16.3660086,18.3798195 C12.4032267,12.8880902 5.11732444,9.40895489 5.11732444,9.40895489 C13.0896929,10.8754962 16.8496553,16.1800075 16.8496553,16.1800075 C16.5688282,11.6399699 13.6357455,7.802 8.67446729,7.44316541 C3.7131891,7.09993233 0.0156327068,8.6288797 0.0156327068,8.6288797 C1.41976805,9.8926015 2.24664774,11.9051955 2.24664774,11.9051955 C3.65078308,16.7260602 7.06751241,18.6138421 9.86018158,19.5967368 C10.3126252,19.7527519 10.7650688,19.8463609 11.2019109,19.8775639 C4.47766278,23.0290677 3.12030075e-05,30.1901579 3.12030075e-05,38.0221128 L3.12030075e-05,59.0685414 L9.89138459,59.0685414 L9.89138459,38.0533158 C9.89138459,33.0140301 13.5421365,28.1619624 18.8310462,28.1619624 C24.119956,28.1619624 27.7863094,33.0140301 27.7863094,38.0533158 L27.7863094,59.0997444 L37.7088658,59.0997444 L37.7088658,38.0533158 C37.7088658,27.8343308 30.095332,18.7386541 19.782738,18.2238045 L20.094768,17.3501203 C20.094768,17.3501203 24.182362,19.7527519 28.363565,18.2862105 C32.5603695,16.8196692 37.6776628,13.995797 39.7682643,6.77230075 C39.7682643,6.77230075 41.0319861,3.73000752 43.1225876,1.85782707 C43.1225876,1.85782707 37.5840538,-0.451195489 30.1421365,0.0792556391 C22.7002192,0.609706767 18.3161966,6.36666165 17.894956,13.1689173 Z" id="Fill-1"></path>
                        <path d="M66.5559526,18.177 C62.2032891,18.177 58.2403511,19.9399699 55.2760654,22.7794436 C52.3743417,19.9399699 48.4114038,18.177 43.9961782,18.177 C39.1753135,18.177 34.82265,20.2988045 31.8426068,23.6843308 C35.072118,26.9450451 37.1783211,31.3758722 37.6151632,36.1655338 L37.7555767,34.5117744 C37.7555767,31.0482406 40.5326444,28.2087669 43.9961782,28.2087669 C47.459868,28.2087669 50.2993417,31.0482406 50.2993417,34.5117744 L50.2993417,59.1465489 L60.3153511,59.1465489 L60.3153511,34.4961729 C60.3153511,31.0326391 63.0925748,28.1931654 66.5559526,28.1931654 C70.0194865,28.1931654 72.8589602,31.0326391 72.8589602,34.4961729 L72.8589602,59.1309474 L82.8752816,59.1309474 L82.8752816,34.4961729 C82.8752816,25.4941053 75.5580203,18.177 66.5559526,18.177" id="Fill-3"></path>
                        <path d="M4.78969286,67.4621348 L4.78969286,74.1083754 C4.78969286,74.2487889 4.66488083,74.4048039 4.49326429,74.4048039 L3.91600865,74.4048039 C3.74439211,74.4048039 3.61958008,74.2643904 3.61958008,74.1083754 L3.61958008,67.4621348 C3.61958008,66.9472852 3.19833947,66.5260445 2.68348985,66.5260445 C2.15303872,66.5260445 1.73179812,66.9472852 1.73179812,67.4621348 L1.73179812,74.1083754 C1.73179812,74.2487889 1.60698609,74.4048039 1.43536955,74.4048039 L0.85811391,74.4048039 C0.686497368,74.4048039 0.561685338,74.2643904 0.561685338,74.1083754 L0.561685338,67.4621348 C0.561685338,66.3076235 1.51337707,65.3559318 2.68348985,65.3559318 C3.83800113,65.3715333 4.78969286,66.3076235 4.78969286,67.4621348" id="Fill-6"></path>
                        <path d="M9.34528515,67.4776739 C9.34528515,66.9628242 8.92404455,66.5415836 8.40919492,66.5415836 C7.8787438,66.5415836 7.4575032,66.9628242 7.4575032,67.4776739 L7.4575032,69.3030498 L9.34528515,69.3030498 L9.34528515,67.4776739 Z M10.5153979,67.4776739 L10.5153979,74.108313 C10.5153979,74.2800855 10.3905859,74.4047415 10.2189694,74.4047415 L9.64171372,74.4047415 C9.47009718,74.4047415 9.34528515,74.2800855 9.34528515,74.108313 L9.34528515,70.4731626 L7.4575032,70.4731626 L7.4575032,74.108313 C7.4575032,74.2800855 7.33269117,74.4047415 7.16107462,74.4047415 L6.58381898,74.4047415 C6.41220244,74.4047415 6.28739041,74.2800855 6.28739041,74.108313 L6.28739041,67.4776739 C6.28739041,66.3233186 7.23908214,65.3714709 8.40919492,65.3714709 C9.5637062,65.3872284 10.5153979,66.3387641 10.5153979,67.4776739 Z" id="Fill-8"></path>
                        <path d="M14.6966477,65.6524227 L14.6966477,66.2295224 C14.6966477,66.4012949 14.5718357,66.526107 14.4002192,66.526107 L13.5733395,66.526107 L13.5733395,74.1082818 C13.5733395,74.2488513 13.4485274,74.4048664 13.2769109,74.4048664 L12.6996553,74.4048664 C12.5280387,74.4048664 12.4032267,74.2642968 12.4032267,74.1082818 L12.4032267,66.526107 L11.576347,66.526107 C11.4047305,66.526107 11.2799184,66.4012949 11.2799184,66.2295224 L11.2799184,65.6524227 C11.2799184,65.4806502 11.4047305,65.3559942 11.576347,65.3559942 L14.3846177,65.3559942 C14.5718357,65.3714397 14.6966477,65.4964077 14.6966477,65.6524227" id="Fill-10"></path>
                        <path d="M20.2507207,65.6524227 L20.2507207,72.2830618 C20.2507207,73.4531746 19.2990289,74.4048664 18.1445177,74.4048664 C16.9744049,74.4048664 16.0227132,73.4531746 16.0227132,72.2830618 L16.0227132,65.6524227 C16.0227132,65.4806502 16.1631267,65.3559942 16.3191417,65.3559942 L16.8963974,65.3559942 C17.0680139,65.3559942 17.1928259,65.4806502 17.1928259,65.6524227 L17.1928259,72.2830618 C17.1928259,72.813357 17.6140665,73.2347536 18.1445177,73.2347536 C18.6593673,73.2347536 19.0806079,72.813357 19.0806079,72.2830618 L19.0806079,65.6524227 C19.0806079,65.4806502 19.2054199,65.3559942 19.3770365,65.3559942 L19.9542921,65.3559942 C20.1259086,65.3714397 20.2507207,65.4964077 20.2507207,65.6524227" id="Fill-13"></path>
                        <path d="M24.7127664,67.4621348 C24.7127664,66.9472852 24.2915258,66.5260445 23.7766761,66.5260445 L22.8405859,66.5260445 L22.8405859,69.2875107 L23.7766761,69.2875107 C24.2915258,69.2875107 24.7127664,68.8662701 24.7127664,68.335819 L24.7127664,67.4621348 Z M25.8672776,68.335819 C25.8672776,68.9442776 25.6332551,69.4903303 25.227616,69.8647664 C25.6332551,70.2548039 25.8672776,70.7852551 25.8672776,71.3781122 L25.8672776,74.0927739 C25.8672776,74.2331874 25.7424656,74.3892024 25.5708491,74.3892024 L24.9935934,74.3892024 C24.8219769,74.3892024 24.6971648,74.2487889 24.6971648,74.0927739 L24.6971648,71.3781122 C24.6971648,70.8632626 24.2759242,70.442022 23.7610746,70.442022 L22.8249844,70.442022 L22.8249844,74.0927739 C22.8249844,74.2331874 22.6845709,74.3892024 22.5285558,74.3892024 L21.9513002,74.3892024 C21.7796836,74.3892024 21.6548716,74.2487889 21.6548716,74.0927739 L21.6548716,65.9331874 C21.6548716,65.6055558 21.9044957,65.3559318 22.2321273,65.3559318 L23.7454731,65.3559318 C24.9155859,65.3559318 25.8516761,66.3076235 25.8516761,67.4621348 L25.8672776,68.335819 Z" id="Fill-16"></path>
                        <path d="M30.4385494,67.4776739 C30.4385494,66.9628242 30.0173088,66.5415836 29.5024592,66.5415836 C28.9720081,66.5415836 28.5507675,66.9628242 28.5507675,67.4776739 L28.5507675,69.3030498 L30.4385494,69.3030498 L30.4385494,67.4776739 Z M31.6086622,67.4776739 L31.6086622,74.108313 C31.6086622,74.2800855 31.4838502,74.4047415 31.3122336,74.4047415 L30.734978,74.4047415 C30.5633615,74.4047415 30.4385494,74.2800855 30.4385494,74.108313 L30.4385494,70.4731626 L28.5507675,70.4731626 L28.5507675,74.108313 C28.5507675,74.2800855 28.4259555,74.4047415 28.2543389,74.4047415 L27.6770833,74.4047415 C27.5054667,74.4047415 27.3806547,74.2800855 27.3806547,74.108313 L27.3806547,67.4776739 C27.3806547,66.3233186 28.3323464,65.3714709 29.5024592,65.3714709 C30.6569705,65.3872284 31.6086622,66.3387641 31.6086622,67.4776739 Z" id="Fill-18"></path>
                        <path d="M36.1487154,73.5311821 L36.1487154,74.1082818 C36.1487154,74.2488513 36.0239034,74.4048664 35.8522868,74.4048664 L33.6992793,74.4048664 C33.3716477,74.4048664 33.1220237,74.1240393 33.1220237,73.8274547 L33.1220237,65.6680242 C33.1220237,65.4964077 33.2468357,65.3714397 33.4184523,65.3714397 L33.9957079,65.3714397 C34.1361214,65.3714397 34.2921365,65.4964077 34.2921365,65.6680242 L34.2921365,73.2501991 L35.8678883,73.2501991 C36.0239034,73.2347536 36.1487154,73.3594096 36.1487154,73.5311821" id="Fill-20"></path>
                        <path d="M47.3817981,67.4621348 L47.3817981,74.1083754 C47.3817981,74.2487889 47.2569861,74.4048039 47.0853695,74.4048039 L46.5079579,74.4048039 C46.3364974,74.4048039 46.2116853,74.2643904 46.2116853,74.1083754 L46.2116853,67.4621348 C46.2116853,66.9472852 45.7904447,66.5260445 45.2598376,66.5260445 C44.745144,66.5260445 44.3237474,66.9472852 44.3237474,67.4621348 L44.3237474,74.1083754 C44.3237474,74.2487889 44.1990914,74.4048039 44.0274748,74.4048039 L43.4502192,74.4048039 C43.2786026,74.4048039 43.1536346,74.2643904 43.1536346,74.1083754 L43.1536346,67.4621348 C43.1536346,66.9472852 42.73255,66.5260445 42.2175444,66.5260445 C41.6872492,66.5260445 41.2660086,66.9472852 41.2660086,67.4621348 L41.2660086,74.1083754 C41.2660086,74.2487889 41.1411966,74.4048039 40.9695801,74.4048039 L40.3923244,74.4048039 C40.2519109,74.4048039 40.0958959,74.2643904 40.0958959,74.1083754 L40.0958959,67.4621348 C40.0958959,66.3076235 41.0475876,65.3559318 42.2175444,65.3559318 C42.794956,65.3559318 43.3566102,65.6055558 43.7310462,66.0111949 C44.1210838,65.6055558 44.6671365,65.3559318 45.2443921,65.3559318 C46.4299504,65.3715333 47.3817981,66.3076235 47.3817981,67.4621348" id="Fill-23"></path>
                        <path d="M51.9530075,67.4776739 C51.9530075,66.9628242 51.5317669,66.5415836 51.0169173,66.5415836 C50.4864662,66.5415836 50.0652256,66.9628242 50.0652256,67.4776739 L50.0652256,69.3030498 L51.9530075,69.3030498 L51.9530075,67.4776739 Z M53.1231203,67.4776739 L53.1231203,74.108313 C53.1231203,74.2800855 52.9983083,74.4047415 52.8266917,74.4047415 L52.2494361,74.4047415 C52.0778195,74.4047415 51.9530075,74.2800855 51.9530075,74.108313 L51.9530075,70.4731626 L50.0652256,70.4731626 L50.0652256,74.108313 C50.0652256,74.2800855 49.9404135,74.4047415 49.768797,74.4047415 L49.1915414,74.4047415 C49.0199248,74.4047415 48.8951128,74.2800855 48.8951128,74.108313 L48.8951128,67.4776739 C48.8951128,66.3233186 49.8468045,65.3714709 51.0169173,65.3714709 C52.1714286,65.3872284 53.1231203,66.3387641 53.1231203,67.4776739 Z" id="Fill-25"></path>
                        <path d="M57.6630955,68.0861949 L57.6630955,67.4621348 C57.6630955,66.9472852 57.2420109,66.5260445 56.7270053,66.5260445 C56.2121556,66.5260445 55.790915,66.9472852 55.790915,67.4621348 L55.790915,72.2986009 C55.790915,72.8134506 56.2121556,73.2346912 56.7270053,73.2346912 C57.2420109,73.2346912 57.6630955,72.8134506 57.6630955,72.2986009 L57.6630955,71.6277363 C57.6630955,71.4561197 57.7880635,71.3313077 57.9595241,71.3313077 L58.5369357,71.3313077 C58.7083962,71.3313077 58.8332083,71.4561197 58.8332083,71.6277363 L58.8332083,72.2986009 C58.8332083,73.4531122 57.8815165,74.4048039 56.7270053,74.4048039 C55.5568925,74.4048039 54.6208023,73.4531122 54.6208023,72.2986009 L54.6208023,67.4621348 C54.6208023,66.3076235 55.5568925,65.3559318 56.7270053,65.3559318 C57.8815165,65.3559318 58.8332083,66.3076235 58.8332083,67.4621348 L58.8332083,68.0861949 C58.8332083,68.2578115 58.7083962,68.3826235 58.5369357,68.3826235 L57.9595241,68.3826235 C57.7880635,68.3826235 57.6630955,68.24221 57.6630955,68.0861949" id="Fill-27"></path>
                        <path d="M64.3717421,65.6524227 L64.3717421,74.1082818 C64.3717421,74.2800543 64.2469301,74.4048664 64.0754695,74.4048664 L63.4980579,74.4048664 C63.3576444,74.4048664 63.2016293,74.2800543 63.2016293,74.1082818 L63.2016293,70.4576859 L61.3452064,70.4576859 L61.3452064,74.1082818 C61.3452064,74.2800543 61.2203944,74.4048664 61.0486218,74.4048664 L60.4713662,74.4048664 C60.2997496,74.4048664 60.1750936,74.2800543 60.1750936,74.1082818 L60.1750936,65.6524227 C60.1750936,65.4806502 60.2997496,65.3559942 60.4713662,65.3559942 L61.0486218,65.3559942 C61.2203944,65.3559942 61.3452064,65.4806502 61.3452064,65.6524227 L61.3452064,69.2875731 L63.2016293,69.2875731 L63.2016293,65.6524227 C63.2016293,65.4806502 63.3420429,65.3559942 63.4980579,65.3559942 L64.0754695,65.3559942 C64.2469301,65.3714397 64.3717421,65.4964077 64.3717421,65.6524227" id="Fill-29"></path>
                        <path d="M67.055232,74.108313 C67.055232,74.2800855 66.9304199,74.4047415 66.7589594,74.4047415 L66.1815477,74.4047415 C66.0099312,74.4047415 65.8851192,74.2800855 65.8851192,74.108313 L65.8851192,65.6524539 C65.8851192,65.4806814 66.0099312,65.3558694 66.1815477,65.3558694 L66.7589594,65.3558694 C66.8992169,65.3558694 67.055232,65.4806814 67.055232,65.6524539 L67.055232,74.108313 Z" id="Fill-32"></path>
                        <path d="M72.781015,67.4621348 L72.781015,74.1083754 C72.781015,74.2487889 72.656203,74.4048039 72.4845865,74.4048039 L71.9073308,74.4048039 C71.7357143,74.4048039 71.6109023,74.2643904 71.6109023,74.1083754 L71.6109023,67.4621348 C71.6109023,66.9472852 71.1896617,66.5260445 70.674812,66.5260445 C70.1443609,66.5260445 69.7231203,66.9472852 69.7231203,67.4621348 L69.7231203,74.1083754 C69.7231203,74.2487889 69.5983083,74.4048039 69.4266917,74.4048039 L68.8494361,74.4048039 C68.6778195,74.4048039 68.5530075,74.2643904 68.5530075,74.1083754 L68.5530075,67.4621348 C68.5530075,66.3076235 69.5046992,65.3559318 70.674812,65.3559318 C71.8293233,65.3715333 72.781015,66.3076235 72.781015,67.4621348" id="Fill-34"></path>
                        <path d="M75.480044,66.5260445 L75.480044,69.2875107 L77.0713974,69.2875107 C77.2430139,69.2875107 77.367982,69.4123227 77.367982,69.5839393 L77.367982,70.1611949 C77.367982,70.3328115 77.2430139,70.4576235 77.0713974,70.4576235 L75.480044,70.4576235 L75.480044,73.2346912 L77.0713974,73.2346912 C77.2430139,73.2346912 77.367982,73.3595032 77.367982,73.5311197 L77.367982,74.1085314 C77.367982,74.2799919 77.2430139,74.4048039 77.0713974,74.4048039 L74.9027883,74.4048039 C74.5751568,74.4048039 74.3256887,74.1239769 74.3256887,73.8275483 L74.3256887,65.9643904 C74.3256887,65.6367588 74.5751568,65.3871348 74.9027883,65.3871348 L77.0713974,65.3871348 C77.2430139,65.3871348 77.367982,65.5119468 77.367982,65.6835633 L77.367982,66.260819 C77.367982,66.4324355 77.2430139,66.5572476 77.0713974,66.5572476 L75.480044,66.5572476 L75.480044,66.5260445 Z" id="Fill-36"></path>
                        <path d="M81.1745929,68.0861949 L81.1745929,67.4621348 C81.1745929,66.9472852 80.7533523,66.5260445 80.2385026,66.5260445 C79.723653,66.5260445 79.3024124,66.9472852 79.3024124,67.4621348 C79.3024124,67.6961573 79.3024124,67.6961573 79.3648184,67.7741648 L81.9078635,71.1284882 C82.3447056,71.7057438 82.3447056,71.7057438 82.3447056,72.2986009 C82.3447056,73.4531122 81.3930139,74.4048039 80.2385026,74.4048039 C79.0841474,74.4048039 78.1322996,73.4531122 78.1322996,72.2986009 L78.1322996,71.6745408 C78.1322996,71.5029242 78.2571117,71.3781122 78.4287282,71.3781122 L79.0061398,71.3781122 C79.1776004,71.3781122 79.3024124,71.5029242 79.3024124,71.6745408 L79.3024124,72.2986009 C79.3024124,72.8134506 79.723653,73.2346912 80.2385026,73.2346912 C80.7533523,73.2346912 81.1745929,72.8134506 81.1745929,72.2986009 C81.1745929,72.0645784 81.1745929,72.0645784 81.1123429,71.9865709 L78.5847432,68.6322476 C78.1480571,68.0549919 78.1480571,68.0549919 78.1480571,67.4621348 C78.1480571,66.3076235 79.0995929,65.3559318 80.2542602,65.3559318 C81.4086154,65.3559318 82.3604632,66.3076235 82.3604632,67.4621348 L82.3604632,68.0861949 C82.3604632,68.2578115 82.2354951,68.3826235 82.0638786,68.3826235 L81.4866229,68.3826235 C81.2994049,68.3826235 81.1745929,68.24221 81.1745929,68.0861949" id="Fill-38"></path>
                    </g>
                </g>
            </g>
        </g>
    </g>
</svg>